<svg width="24" height="24" viewBox="0 0 24 24" fill="none" xmlns="http://www.w3.org/2000/svg">
<path d="M8.24219 11.1195L11.6922 7.30949L14.5322 4.16949C14.6548 4.04643 14.8005 3.94879 14.961 3.88217C15.1214 3.81554 15.2935 3.78125 15.4672 3.78125C15.6409 3.78125 15.8129 3.81554 15.9734 3.88217C16.1338 3.94879 16.2796 4.04643 16.4022 4.16949C16.6534 4.40223 16.8035 4.72409 16.8203 5.06614C16.8372 5.40819 16.7194 5.74323 16.4922 5.99949L12.6222 10.2795L12.0022 10.9595" stroke="#222222" stroke-width="1.5" stroke-miterlimit="10"/>
<path d="M14 12.6998L19.51 6.60984L19.95 6.11984C20.0675 5.98851 20.158 5.83533 20.2164 5.66902C20.2747 5.50272 20.2997 5.32656 20.29 5.15059C20.2802 4.97462 20.2359 4.8023 20.1596 4.64346C20.0832 4.48462 19.9763 4.34237 19.845 4.22484C19.7137 4.1073 19.5605 4.01679 19.3942 3.95845C19.2279 3.90012 19.0517 3.87512 18.8758 3.88487C18.6998 3.89462 18.5275 3.93893 18.3686 4.01528C18.2098 4.09163 18.0675 4.19851 17.95 4.32984L17.06 5.32984L12.61 10.2398L12 10.9998" stroke="#222222" stroke-width="1.5" stroke-miterlimit="10" stroke-linecap="round"/>
<path d="M15.49 15.0005L16.55 13.8305L19.81 10.2205L20.81 9.07049C21.046 8.80528 21.1671 8.45715 21.1464 8.10271C21.1258 7.74827 20.9652 7.41653 20.7 7.18049C20.4348 6.94445 20.0867 6.82343 19.7322 6.84406C19.3778 6.86469 19.046 7.02528 18.81 7.29049L14 12.7005" stroke="#222222" stroke-width="1.5" stroke-miterlimit="10" stroke-linecap="round"/>
<path d="M17.0022 17.2102L19.1022 14.8902L20.5622 13.2802C20.798 13.0254 20.9231 12.6875 20.91 12.3407C20.8968 11.9938 20.7466 11.6663 20.4922 11.4302V11.4302C20.2316 11.1957 19.8889 11.0736 19.5387 11.0904C19.1885 11.1073 18.8591 11.2617 18.6222 11.5202L15.4922 15.0002" stroke="#222222" stroke-width="1.5" stroke-miterlimit="10" stroke-linecap="round"/>
<path d="M19.1303 14.8903L15.6603 18.7203C14.5313 19.9645 12.9545 20.7098 11.2763 20.7923C9.59819 20.8748 7.95592 20.2878 6.71029 19.1603L6.09029 18.6103C5.23113 17.8277 4.60128 16.8259 4.26831 15.7125C3.93534 14.5991 3.91183 13.416 4.20029 12.2903L5.68029 6.63025C5.7137 6.4654 5.77927 6.30875 5.87325 6.16926C5.96724 6.02977 6.0878 5.91017 6.22803 5.8173C6.36827 5.72443 6.52544 5.6601 6.69055 5.62801C6.85566 5.59592 7.02547 5.59668 7.19029 5.63025V5.63025C7.4709 5.69675 7.72143 5.85466 7.90247 6.07914C8.0835 6.30362 8.18475 6.58192 8.19029 6.87025L8.29029 12.0003C8.75084 12.2443 9.12816 12.6201 9.37399 13.0797C9.61981 13.5393 9.72298 14.0617 9.67029 14.5803" stroke="#222222" stroke-width="1.5" stroke-miterlimit="10" stroke-linecap="round"/>
<path d="M21.9969 16.7998C21.9969 18.1789 21.449 19.5016 20.4738 20.4768C19.4986 21.452 18.176 21.9998 16.7969 21.9998" stroke="#222222" stroke-width="1.5" stroke-miterlimit="10" stroke-linecap="round"/>
<path d="M2 7.2C2 5.82087 2.54786 4.49823 3.52304 3.52304C4.49823 2.54786 5.82087 2 7.2 2" stroke="#222222" stroke-width="1.5" stroke-miterlimit="10" stroke-linecap="round"/>
</svg>
