<svg width="24" height="24" viewBox="0 0 24 24" fill="none" xmlns="http://www.w3.org/2000/svg">
<path d="M19.0015 16.6898C17.9634 16.2975 16.9599 15.8192 16.0015 15.2598C15.8104 15.1455 15.5867 15.0981 15.3657 15.1253C15.1447 15.1524 14.9391 15.2526 14.7815 15.4098L13.9315 16.2598C13.7663 16.4271 13.5474 16.5308 13.3133 16.5528C13.0792 16.5747 12.8449 16.5135 12.6515 16.3798C11.6878 15.6796 10.7785 14.9074 9.93146 14.0698C9.09389 13.2228 8.32168 12.3135 7.62146 11.3498C7.4878 11.1564 7.42657 10.9221 7.44851 10.688C7.47046 10.4539 7.57418 10.235 7.74146 10.0698L8.59146 9.21984C8.74872 9.06221 8.84887 8.8566 8.87604 8.63561C8.90321 8.41461 8.85585 8.19087 8.74146 7.99984C8.18214 7.04137 7.70382 6.03789 7.31146 4.99984C7.22707 4.76335 7.05679 4.56726 6.83447 4.45054C6.61215 4.33382 6.35405 4.30501 6.11146 4.36984L4.42146 4.82984L2.71146 5.27984C2.4558 5.34791 2.23753 5.51452 2.10446 5.74318C1.97139 5.97185 1.93435 6.24393 2.00146 6.49984C2.60312 8.78356 3.58337 10.9503 4.90146 12.9098C5.70782 14.1395 6.63947 15.2823 7.68146 16.3198C8.71902 17.3618 9.8618 18.2935 11.0915 19.0998C13.0511 20.4179 15.2177 21.3982 17.5015 21.9998C17.756 22.064 18.0255 22.0255 18.2519 21.8926C18.4782 21.7598 18.6433 21.5433 18.7115 21.2898L19.1615 19.5798L19.6215 17.8898C19.6868 17.6485 19.6594 17.3915 19.5447 17.1693C19.4299 16.9472 19.2361 16.7761 19.0015 16.6898V16.6898Z" stroke="#222222" stroke-width="1.5" stroke-miterlimit="10"/>
<path d="M11.8906 5.91992C13.4847 6.06148 14.9782 6.75911 16.1098 7.89072C17.2414 9.02233 17.9391 10.5159 18.0806 12.1099" stroke="#222222" stroke-width="1.5" stroke-miterlimit="10" stroke-linecap="round"/>
<path d="M12 1.7998C14.6577 1.94599 17.168 3.06755 19.0501 4.94967C20.9323 6.83178 22.0538 9.34211 22.2 11.9998" stroke="#222222" stroke-width="1.5" stroke-miterlimit="10" stroke-linecap="round"/>
</svg>
